<svg width="26" height="25" viewBox="0 0 26 25" fill="none" xmlns="http://www.w3.org/2000/svg">
<path d="M20.5859 14.1612L2.23054 14.1612C1.85243 14.1612 1.5173 14.0151 1.22512 13.723C0.93295 13.4308 0.786864 13.0957 0.786863 12.7176C0.786864 12.3394 0.93295 12.0043 1.22512 11.7121C1.5173 11.42 1.85243 11.2739 2.23054 11.2739L20.5859 11.2739L12.7488 3.43677C12.4566 3.1446 12.3105 2.80087 12.3105 2.40558C12.3105 2.01028 12.4566 1.66655 12.7488 1.37438C13.0409 1.08221 13.3847 0.936121 13.78 0.936121C14.1752 0.936121 14.519 1.08221 14.8111 1.37438L25.1231 11.6864C25.4153 11.9785 25.5614 12.3223 25.5614 12.7176C25.5614 13.1128 25.4153 13.4566 25.1231 13.7487L14.8111 24.0607C14.519 24.3529 14.1752 24.499 13.7799 24.499C13.3847 24.499 13.0409 24.3529 12.7488 24.0607C12.4566 23.7685 12.3105 23.4248 12.3105 23.0295C12.3105 22.6342 12.4566 22.2905 12.7488 21.9983L20.5859 14.1612Z" fill="white"/>
</svg>
