<svg width="46" height="46" viewBox="0 0 46 46" fill="none" xmlns="http://www.w3.org/2000/svg">
<mask id="mask0_1520_163" style="mask-type:alpha" maskUnits="userSpaceOnUse" x="0" y="0" width="46" height="46">
<rect width="46" height="46" fill="#D9D9D9"/>
</mask>
<g mask="url(#mask0_1520_163)">
<path d="M9.58333 40.25C9.04028 40.25 8.58507 40.0663 8.21771 39.699C7.85035 39.3316 7.66667 38.8764 7.66667 38.3333V36.4167H5.75V28.75C5.75 28.2069 5.93368 27.7517 6.30104 27.3844C6.6684 27.017 7.12361 26.8333 7.66667 26.8333H9.58333V13.4167C9.58333 11.3083 10.334 9.50347 11.8354 8.00208C13.3368 6.50069 15.1417 5.75 17.25 5.75C19.3583 5.75 21.1632 6.50069 22.6646 8.00208C24.166 9.50347 24.9167 11.3083 24.9167 13.4167V32.5833C24.9167 33.6375 25.292 34.5399 26.0427 35.2906C26.7934 36.0413 27.6958 36.4167 28.75 36.4167C29.8042 36.4167 30.7066 36.0413 31.4573 35.2906C32.208 34.5399 32.5833 33.6375 32.5833 32.5833V19.1667H30.6667C30.1236 19.1667 29.6684 18.983 29.301 18.6156C28.9337 18.2483 28.75 17.7931 28.75 17.25V9.58333H30.6667V7.66667C30.6667 7.12361 30.8503 6.6684 31.2177 6.30104C31.5851 5.93368 32.0403 5.75 32.5833 5.75H36.4167C36.9597 5.75 37.4149 5.93368 37.7823 6.30104C38.1497 6.6684 38.3333 7.12361 38.3333 7.66667V9.58333H40.25V17.25C40.25 17.7931 40.0663 18.2483 39.699 18.6156C39.3316 18.983 38.8764 19.1667 38.3333 19.1667H36.4167V32.5833C36.4167 34.6917 35.666 36.4965 34.1646 37.9979C32.6632 39.4993 30.8583 40.25 28.75 40.25C26.6417 40.25 24.8368 39.4993 23.3354 37.9979C21.834 36.4965 21.0833 34.6917 21.0833 32.5833V13.4167C21.0833 12.3625 20.708 11.4601 19.9573 10.7094C19.2066 9.95868 18.3042 9.58333 17.25 9.58333C16.1958 9.58333 15.2934 9.95868 14.5427 10.7094C13.792 11.4601 13.4167 12.3625 13.4167 13.4167V26.8333H15.3333C15.8764 26.8333 16.3316 27.017 16.699 27.3844C17.0663 27.7517 17.25 28.2069 17.25 28.75V36.4167H15.3333V38.3333C15.3333 38.8764 15.1497 39.3316 14.7823 39.699C14.4149 40.0663 13.9597 40.25 13.4167 40.25H9.58333Z" fill="url(#paint0_linear_1520_163)"/>
</g>
<defs>
<linearGradient id="paint0_linear_1520_163" x1="40.25" y1="36.0781" x2="5.75" y2="36.0781" gradientUnits="userSpaceOnUse">
<stop stop-color="#F0B71F"/>
<stop offset="1" stop-color="#E03609"/>
</linearGradient>
</defs>
</svg>
