<svg width="18" height="17" viewBox="0 0 18 17" fill="none" xmlns="http://www.w3.org/2000/svg">
<path d="M7.33341 11.8146H10.6667C10.9029 11.8146 11.1008 11.7348 11.2605 11.575C11.4202 11.4153 11.5001 11.2174 11.5001 10.9813V9.31462H9.83341V10.1479H8.16675V6.81462H9.83341V7.64795H11.5001V5.98128C11.5001 5.74517 11.4202 5.54725 11.2605 5.38753C11.1008 5.22781 10.9029 5.14795 10.6667 5.14795H7.33341C7.0973 5.14795 6.89939 5.22781 6.73966 5.38753C6.57994 5.54725 6.50008 5.74517 6.50008 5.98128V10.9813C6.50008 11.2174 6.57994 11.4153 6.73966 11.575C6.89939 11.7348 7.0973 11.8146 7.33341 11.8146ZM9.00008 16.8146C7.8473 16.8146 6.76397 16.5959 5.75008 16.1584C4.73619 15.7209 3.85425 15.1271 3.10425 14.3771C2.35425 13.6271 1.7605 12.7452 1.323 11.7313C0.885498 10.7174 0.666748 9.63406 0.666748 8.48128C0.666748 7.3285 0.885498 6.24517 1.323 5.23128C1.7605 4.21739 2.35425 3.33545 3.10425 2.58545C3.85425 1.83545 4.73619 1.2417 5.75008 0.804199C6.76397 0.366699 7.8473 0.147949 9.00008 0.147949C10.1529 0.147949 11.2362 0.366699 12.2501 0.804199C13.264 1.2417 14.1459 1.83545 14.8959 2.58545C15.6459 3.33545 16.2397 4.21739 16.6772 5.23128C17.1147 6.24517 17.3334 7.3285 17.3334 8.48128C17.3334 9.63406 17.1147 10.7174 16.6772 11.7313C16.2397 12.7452 15.6459 13.6271 14.8959 14.3771C14.1459 15.1271 13.264 15.7209 12.2501 16.1584C11.2362 16.5959 10.1529 16.8146 9.00008 16.8146ZM9.00008 15.1479C10.8612 15.1479 12.4376 14.5021 13.7292 13.2104C15.0209 11.9188 15.6667 10.3424 15.6667 8.48128C15.6667 6.62017 15.0209 5.04378 13.7292 3.75212C12.4376 2.46045 10.8612 1.81462 9.00008 1.81462C7.13897 1.81462 5.56258 2.46045 4.27091 3.75212C2.97925 5.04378 2.33341 6.62017 2.33341 8.48128C2.33341 10.3424 2.97925 11.9188 4.27091 13.2104C5.56258 14.5021 7.13897 15.1479 9.00008 15.1479Z" fill="white"/>
</svg>
