<svg width="46" height="46" viewBox="0 0 46 46" fill="none" xmlns="http://www.w3.org/2000/svg">
<mask id="mask0_1520_156" style="mask-type:alpha" maskUnits="userSpaceOnUse" x="0" y="0" width="46" height="46">
<rect width="46" height="46" fill="#D9D9D9"/>
</mask>
<g mask="url(#mask0_1520_156)">
<path d="M36.9917 17.0583L43.125 23.1916L40.4417 25.8749L34.3084 19.7416C33.6375 20.1249 32.9188 20.4444 32.1521 20.6999C31.3855 20.9555 30.5709 21.0833 29.7084 21.0833C27.3125 21.0833 25.2761 20.2447 23.599 18.5676C21.9219 16.8905 21.0834 14.8541 21.0834 12.4583C21.0834 10.0624 21.9219 8.02596 23.599 6.34888C25.2761 4.67179 27.3125 3.83325 29.7084 3.83325C32.1042 3.83325 34.1407 4.67179 35.8178 6.34888C37.4948 8.02596 38.3334 10.0624 38.3334 12.4583C38.3334 13.3208 38.2056 14.1353 37.95 14.902C37.6945 15.6687 37.375 16.3874 36.9917 17.0583ZM29.7084 17.2499C31.05 17.2499 32.1841 16.7867 33.1105 15.8603C34.0368 14.9339 34.5 13.7999 34.5 12.4583C34.5 11.1166 34.0368 9.98256 33.1105 9.05617C32.1841 8.12978 31.05 7.66659 29.7084 7.66659C28.3667 7.66659 27.2327 8.12978 26.3063 9.05617C25.3799 9.98256 24.9167 11.1166 24.9167 12.4583C24.9167 13.7999 25.3799 14.9339 26.3063 15.8603C27.2327 16.7867 28.3667 17.2499 29.7084 17.2499ZM7.66671 42.1666C6.61254 42.1666 5.71011 41.7912 4.95942 41.0405C4.20872 40.2898 3.83337 39.3874 3.83337 38.3333V11.4999C3.83337 10.4458 4.20872 9.54332 4.95942 8.79263C5.71011 8.04193 6.61254 7.66659 7.66671 7.66659H18.2084C17.857 8.4652 17.6174 9.28777 17.4896 10.1343C17.3618 10.9808 17.298 11.8194 17.298 12.6499C17.298 16.1319 18.5278 19.0388 20.9875 21.3708C23.4473 23.7027 26.3702 24.8687 29.7563 24.8687C30.3632 24.8687 30.9702 24.8287 31.5771 24.7489C32.1841 24.669 32.807 24.5333 33.4459 24.3416L38.3334 29.2291V38.3333C38.3334 39.3874 37.958 40.2898 37.2073 41.0405C36.4566 41.7912 35.5542 42.1666 34.5 42.1666H7.66671Z" fill="url(#paint0_linear_1520_156)"/>
</g>
<defs>
<linearGradient id="paint0_linear_1520_156" x1="43.125" y1="37.5311" x2="3.83337" y2="37.5311" gradientUnits="userSpaceOnUse">
<stop stop-color="#F0B71F"/>
<stop offset="1" stop-color="#E03609"/>
</linearGradient>
</defs>
</svg>
