<svg width="13" height="10" viewBox="0 0 13 10" fill="none" xmlns="http://www.w3.org/2000/svg">
<path d="M0.539453 3.95474C-0.279026 2.93628 -0.151797 1.41786 0.823629 0.563261C1.79905 -0.291334 3.2533 -0.15849 4.07178 0.859978L8.23887 6.04526C9.05735 7.06373 8.93012 8.58215 7.95469 9.43674C6.97927 10.2913 5.52502 10.1585 4.70654 9.14003L0.539453 3.95474Z" fill="url(#paint0_linear_1587_598)"/>
<path d="M8.92822 0.859974C9.7467 -0.158494 11.2009 -0.291339 12.1764 0.563257C13.1518 1.41785 13.279 2.93627 12.4605 3.95474L8.29346 9.14002C7.47498 10.1585 6.02073 10.2913 5.04531 9.43674C4.06988 8.58214 3.94265 7.06372 4.76113 6.04526L8.92822 0.859974Z" fill="url(#paint1_linear_1587_598)"/>
<defs>
<linearGradient id="paint0_linear_1587_598" x1="13" y1="8.79074" x2="-5.20345e-10" y2="8.79074" gradientUnits="userSpaceOnUse">
<stop stop-color="#F0B71F"/>
<stop offset="1" stop-color="#E03609"/>
</linearGradient>
<linearGradient id="paint1_linear_1587_598" x1="13" y1="8.79074" x2="-5.20345e-10" y2="8.79074" gradientUnits="userSpaceOnUse">
<stop stop-color="#F0B71F"/>
<stop offset="1" stop-color="#E03609"/>
</linearGradient>
</defs>
</svg>
